<svg width="43" height="41" viewBox="0 0 43 41" fill="none" xmlns="http://www.w3.org/2000/svg">
<path d="M22.3409 16.5734C26.9445 18.1191 31.9091 18.0332 36.4675 16.3587C36.5126 14.5983 36.0161 12.8379 35.1586 11.2493L34.7073 10.3906C34.5719 10.4335 34.3914 10.5194 34.3011 10.6053C30.1489 12.4945 25.4551 12.7521 21.0772 11.2493C18.0082 10.2188 14.6683 10.4765 11.7798 11.8504L10.8772 12.2798C10.9223 12.4086 11.0126 12.5803 11.1028 12.6662C11.6444 13.7825 12.0958 14.9848 12.4117 16.2299C15.571 15.3712 19.0913 15.457 22.3409 16.5734Z" fill="#D9D9D9"/>
<path d="M11.1025 29.4972L12.0954 28.982C14.1073 28.025 16.3268 27.5617 18.529 27.6228C19.8837 27.6604 21.2319 27.8964 22.5211 28.3379C22.9411 28.4797 23.3624 28.6099 23.7848 28.7285L23.7848 33.3051C22.0374 32.9961 20.2684 32.9519 18.529 33.1649C16.7247 33.3859 14.9523 33.8836 13.2689 34.6496C13.1786 34.7354 12.9981 34.8213 12.8627 34.8642L12.4113 34.0055C11.6441 32.5886 11.1928 31.0429 11.1025 29.4972Z" fill="#D9D9D9"/>
<path d="M11.6445 25.5471C15.4808 24.0443 19.7685 23.9155 23.695 25.2465C27.3056 26.4487 31.1419 26.6634 34.7526 25.8906C34.7074 23.9584 34.9782 22.0692 35.7003 20.18C30.9614 21.5111 25.8614 21.3823 21.1224 19.7936C18.4145 18.849 15.4357 18.849 12.7277 19.7077C12.7729 21.554 12.4118 23.4432 11.7348 25.2894C11.7348 25.2894 11.6897 25.4183 11.6445 25.5471Z" fill="#D9D9D9"/>
</svg>
