<svg width="24" height="24" viewBox="0 0 24 24" fill="none" xmlns="http://www.w3.org/2000/svg">
<path fill-rule="evenodd" clip-rule="evenodd" d="M7.60045 2.18176H16.399C19.3871 2.18176 21.8181 4.61276 21.818 7.60069V16.3992C21.818 19.3871 19.3871 21.8181 16.399 21.8181H7.60045C4.61252 21.8181 2.18164 19.3872 2.18164 16.3992V7.60069C2.18164 4.61276 4.61252 2.18176 7.60045 2.18176ZM16.3991 20.0759C18.4265 20.0759 20.0759 18.4266 20.0759 16.3992H20.0758V7.60069C20.0758 5.57343 18.4263 3.924 16.399 3.924H7.60045C5.57319 3.924 3.92387 5.57343 3.92387 7.60069V16.3992C3.92387 18.4266 5.57319 20.076 7.60045 20.0759H16.3991ZM6.85696 12.0001C6.85696 9.16418 9.16401 6.85709 11.9998 6.85709C14.8356 6.85709 17.1427 9.16418 17.1427 12.0001C17.1427 14.8358 14.8356 17.1428 11.9998 17.1428C9.16401 17.1428 6.85696 14.8358 6.85696 12.0001ZM8.6278 11.9999C8.6278 13.8592 10.1406 15.3718 11.9998 15.3718C13.8591 15.3718 15.3718 13.8592 15.3718 11.9999C15.3718 10.1405 13.8592 8.62784 11.9998 8.62784C10.1404 8.62784 8.6278 10.1405 8.6278 11.9999Z" fill="#D9D9D9"/>
<mask id="mask0_569_1125" style="mask-type:luminance" maskUnits="userSpaceOnUse" x="2" y="2" width="20" height="20">
<path fill-rule="evenodd" clip-rule="evenodd" d="M7.60045 2.18176H16.399C19.3871 2.18176 21.8181 4.61276 21.818 7.60069V16.3992C21.818 19.3871 19.3871 21.8181 16.399 21.8181H7.60045C4.61252 21.8181 2.18164 19.3872 2.18164 16.3992V7.60069C2.18164 4.61276 4.61252 2.18176 7.60045 2.18176ZM16.3991 20.0759C18.4265 20.0759 20.0759 18.4266 20.0759 16.3992H20.0758V7.60069C20.0758 5.57343 18.4263 3.924 16.399 3.924H7.60045C5.57319 3.924 3.92387 5.57343 3.92387 7.60069V16.3992C3.92387 18.4266 5.57319 20.076 7.60045 20.0759H16.3991ZM6.85696 12.0001C6.85696 9.16418 9.16401 6.85709 11.9998 6.85709C14.8356 6.85709 17.1427 9.16418 17.1427 12.0001C17.1427 14.8358 14.8356 17.1428 11.9998 17.1428C9.16401 17.1428 6.85696 14.8358 6.85696 12.0001ZM8.6278 11.9999C8.6278 13.8592 10.1406 15.3718 11.9998 15.3718C13.8591 15.3718 15.3718 13.8592 15.3718 11.9999C15.3718 10.1405 13.8592 8.62784 11.9998 8.62784C10.1404 8.62784 8.6278 10.1405 8.6278 11.9999Z" fill="white"/>
</mask>
<g mask="url(#mask0_569_1125)">
</g>
</svg>
