<svg width="25" height="24" viewBox="0 0 25 24" fill="none" xmlns="http://www.w3.org/2000/svg">
<path d="M15.3297 11.29L11.0897 7.05001C10.9967 6.95628 10.8861 6.88189 10.7643 6.83112C10.6424 6.78035 10.5117 6.75421 10.3797 6.75421C10.2477 6.75421 10.117 6.78035 9.99512 6.83112C9.87326 6.88189 9.76266 6.95628 9.6697 7.05001C9.48345 7.23737 9.37891 7.49082 9.37891 7.75501C9.37891 8.0192 9.48345 8.27265 9.6697 8.46001L13.2097 12L9.6697 15.54C9.48345 15.7274 9.37891 15.9808 9.37891 16.245C9.37891 16.5092 9.48345 16.7626 9.6697 16.95C9.76314 17.0427 9.87395 17.116 9.99579 17.1658C10.1176 17.2155 10.2481 17.2408 10.3797 17.24C10.5113 17.2408 10.6418 17.2155 10.7636 17.1658C10.8854 17.116 10.9963 17.0427 11.0897 16.95L15.3297 12.71C15.4234 12.617 15.4978 12.5064 15.5486 12.3846C15.5994 12.2627 15.6255 12.132 15.6255 12C15.6255 11.868 15.5994 11.7373 15.5486 11.6154C15.4978 11.4936 15.4234 11.383 15.3297 11.29Z" fill="#F0FDF4"/>
</svg>
