<?xml version="1.0" standalone="no"?>
<svg xmlns:xlink="http://www.w3.org/1999/xlink" id="wave" style="transform:rotate(0deg); transition: 0.3s" viewBox="0 0 1440 150" version="1.1" xmlns="http://www.w3.org/2000/svg"><defs><linearGradient id="sw-gradient-0" x1="0" x2="0" y1="1" y2="0"><stop stop-color="rgba(1.519, 76.87, 0, 1)" offset="0%"/><stop stop-color="rgba(24.169, 127.87, 14.91, 1)" offset="100%"/></linearGradient></defs><path style="transform:translate(0, 0px); opacity:1" fill="url(#sw-gradient-0)" d="M0,75L40,80C80,85,160,95,240,85C320,75,400,45,480,50C560,55,640,95,720,102.5C800,110,880,85,960,85C1040,85,1120,110,1200,107.5C1280,105,1360,75,1440,52.5C1520,30,1600,15,1680,25C1760,35,1840,70,1920,70C2000,70,2080,35,2160,17.5C2240,0,2320,0,2400,20C2480,40,2560,80,2640,80C2720,80,2800,40,2880,20C2960,0,3040,0,3120,22.5C3200,45,3280,90,3360,102.5C3440,115,3520,95,3600,85C3680,75,3760,75,3840,72.5C3920,70,4000,65,4080,52.5C4160,40,4240,20,4320,20C4400,20,4480,40,4560,62.5C4640,85,4720,110,4800,100C4880,90,4960,45,5040,40C5120,35,5200,70,5280,77.5C5360,85,5440,65,5520,65C5600,65,5680,85,5720,95L5760,105L5760,150L5720,150C5680,150,5600,150,5520,150C5440,150,5360,150,5280,150C5200,150,5120,150,5040,150C4960,150,4880,150,4800,150C4720,150,4640,150,4560,150C4480,150,4400,150,4320,150C4240,150,4160,150,4080,150C4000,150,3920,150,3840,150C3760,150,3680,150,3600,150C3520,150,3440,150,3360,150C3280,150,3200,150,3120,150C3040,150,2960,150,2880,150C2800,150,2720,150,2640,150C2560,150,2480,150,2400,150C2320,150,2240,150,2160,150C2080,150,2000,150,1920,150C1840,150,1760,150,1680,150C1600,150,1520,150,1440,150C1360,150,1280,150,1200,150C1120,150,1040,150,960,150C880,150,800,150,720,150C640,150,560,150,480,150C400,150,320,150,240,150C160,150,80,150,40,150L0,150Z"/><defs><linearGradient id="sw-gradient-1" x1="0" x2="0" y1="1" y2="0"><stop stop-color="rgba(24, 80, 19, 1)" offset="0%"/><stop stop-color="rgba(24, 80, 19, 1)" offset="100%"/></linearGradient></defs><path style="transform:translate(0, 50px); opacity:0.9" fill="url(#sw-gradient-1)" d="M0,60L40,60C80,60,160,60,240,67.5C320,75,400,90,480,82.5C560,75,640,45,720,30C800,15,880,15,960,35C1040,55,1120,95,1200,105C1280,115,1360,95,1440,82.5C1520,70,1600,65,1680,65C1760,65,1840,70,1920,65C2000,60,2080,45,2160,50C2240,55,2320,80,2400,75C2480,70,2560,35,2640,22.5C2720,10,2800,20,2880,42.5C2960,65,3040,100,3120,105C3200,110,3280,85,3360,70C3440,55,3520,50,3600,45C3680,40,3760,35,3840,45C3920,55,4000,80,4080,77.5C4160,75,4240,45,4320,42.5C4400,40,4480,65,4560,67.5C4640,70,4720,50,4800,57.5C4880,65,4960,100,5040,95C5120,90,5200,45,5280,37.5C5360,30,5440,60,5520,72.5C5600,85,5680,80,5720,77.5L5760,75L5760,150L5720,150C5680,150,5600,150,5520,150C5440,150,5360,150,5280,150C5200,150,5120,150,5040,150C4960,150,4880,150,4800,150C4720,150,4640,150,4560,150C4480,150,4400,150,4320,150C4240,150,4160,150,4080,150C4000,150,3920,150,3840,150C3760,150,3680,150,3600,150C3520,150,3440,150,3360,150C3280,150,3200,150,3120,150C3040,150,2960,150,2880,150C2800,150,2720,150,2640,150C2560,150,2480,150,2400,150C2320,150,2240,150,2160,150C2080,150,2000,150,1920,150C1840,150,1760,150,1680,150C1600,150,1520,150,1440,150C1360,150,1280,150,1200,150C1120,150,1040,150,960,150C880,150,800,150,720,150C640,150,560,150,480,150C400,150,320,150,240,150C160,150,80,150,40,150L0,150Z"/></svg>