<svg width="24" height="24" viewBox="0 0 24 24" fill="none" xmlns="http://www.w3.org/2000/svg">
<path fill-rule="evenodd" clip-rule="evenodd" d="M7.6007 2.18176H16.3992C19.3874 2.18176 21.8184 4.61276 21.8182 7.60069V16.3992C21.8182 19.3871 19.3874 21.8181 16.3992 21.8181H7.6007C4.61276 21.8181 2.18188 19.3872 2.18188 16.3992V7.60069C2.18188 4.61276 4.61276 2.18176 7.6007 2.18176ZM16.3993 20.0759C18.4267 20.0759 20.0761 18.4266 20.0761 16.3992H20.076V7.60069C20.076 5.57343 18.4266 3.924 16.3992 3.924H7.6007C5.57343 3.924 3.92412 5.57343 3.92412 7.60069V16.3992C3.92412 18.4266 5.57343 20.076 7.6007 20.0759H16.3993ZM6.85721 12.0001C6.85721 9.16418 9.16425 6.85709 12.0001 6.85709C14.8359 6.85709 17.1429 9.16418 17.1429 12.0001C17.1429 14.8358 14.8359 17.1428 12.0001 17.1428C9.16425 17.1428 6.85721 14.8358 6.85721 12.0001ZM8.62805 11.9999C8.62805 13.8592 10.1408 15.3718 12.0001 15.3718C13.8593 15.3718 15.3721 13.8592 15.3721 11.9999C15.3721 10.1405 13.8594 8.62784 12.0001 8.62784C10.1407 8.62784 8.62805 10.1405 8.62805 11.9999Z" fill="#185013"/>
<mask id="mask0_36_4200" style="mask-type:luminance" maskUnits="userSpaceOnUse" x="2" y="2" width="20" height="20">
<path fill-rule="evenodd" clip-rule="evenodd" d="M7.6007 2.18176H16.3992C19.3874 2.18176 21.8184 4.61276 21.8182 7.60069V16.3992C21.8182 19.3871 19.3874 21.8181 16.3992 21.8181H7.6007C4.61276 21.8181 2.18188 19.3872 2.18188 16.3992V7.60069C2.18188 4.61276 4.61276 2.18176 7.6007 2.18176ZM16.3993 20.0759C18.4267 20.0759 20.0761 18.4266 20.0761 16.3992H20.076V7.60069C20.076 5.57343 18.4266 3.924 16.3992 3.924H7.6007C5.57343 3.924 3.92412 5.57343 3.92412 7.60069V16.3992C3.92412 18.4266 5.57343 20.076 7.6007 20.0759H16.3993ZM6.85721 12.0001C6.85721 9.16418 9.16425 6.85709 12.0001 6.85709C14.8359 6.85709 17.1429 9.16418 17.1429 12.0001C17.1429 14.8358 14.8359 17.1428 12.0001 17.1428C9.16425 17.1428 6.85721 14.8358 6.85721 12.0001ZM8.62805 11.9999C8.62805 13.8592 10.1408 15.3718 12.0001 15.3718C13.8593 15.3718 15.3721 13.8592 15.3721 11.9999C15.3721 10.1405 13.8594 8.62784 12.0001 8.62784C10.1407 8.62784 8.62805 10.1405 8.62805 11.9999Z" fill="white"/>
</mask>
<g mask="url(#mask0_36_4200)">
</g>
</svg>
