<?xml version="1.0" standalone="no"?>
<svg xmlns:xlink="http://www.w3.org/1999/xlink" id="wave" style="transform:rotate(180deg); transition: 0.3s" viewBox="0 0 1440 150" version="1.1" xmlns="http://www.w3.org/2000/svg"><defs><linearGradient id="sw-gradient-0" x1="0" x2="0" y1="1" y2="0"><stop stop-color="rgba(24, 80, 19, 1)" offset="0%"/><stop stop-color="rgba(24.76, 121.04, 16.164, 1)" offset="100%"/></linearGradient></defs><path style="transform:translate(0, 0px); opacity:1" fill="url(#sw-gradient-0)" d="M0,15L30,32.5C60,50,120,85,180,95C240,105,300,90,360,77.5C420,65,480,55,540,65C600,75,660,105,720,110C780,115,840,95,900,72.5C960,50,1020,25,1080,30C1140,35,1200,70,1260,77.5C1320,85,1380,65,1440,47.5C1500,30,1560,15,1620,20C1680,25,1740,50,1800,67.5C1860,85,1920,95,1980,82.5C2040,70,2100,35,2160,20C2220,5,2280,10,2340,10C2400,10,2460,5,2520,12.5C2580,20,2640,40,2700,60C2760,80,2820,100,2880,100C2940,100,3000,80,3060,72.5C3120,65,3180,70,3240,62.5C3300,55,3360,35,3420,30C3480,25,3540,35,3600,37.5C3660,40,3720,35,3780,32.5C3840,30,3900,30,3960,27.5C4020,25,4080,20,4140,27.5C4200,35,4260,55,4290,65L4320,75L4320,150L4290,150C4260,150,4200,150,4140,150C4080,150,4020,150,3960,150C3900,150,3840,150,3780,150C3720,150,3660,150,3600,150C3540,150,3480,150,3420,150C3360,150,3300,150,3240,150C3180,150,3120,150,3060,150C3000,150,2940,150,2880,150C2820,150,2760,150,2700,150C2640,150,2580,150,2520,150C2460,150,2400,150,2340,150C2280,150,2220,150,2160,150C2100,150,2040,150,1980,150C1920,150,1860,150,1800,150C1740,150,1680,150,1620,150C1560,150,1500,150,1440,150C1380,150,1320,150,1260,150C1200,150,1140,150,1080,150C1020,150,960,150,900,150C840,150,780,150,720,150C660,150,600,150,540,150C480,150,420,150,360,150C300,150,240,150,180,150C120,150,60,150,30,150L0,150Z"/></svg>