<svg width="95" height="32" viewBox="0 0 95 32" fill="none" xmlns="http://www.w3.org/2000/svg">
<path d="M14.626 9.94595C19.0055 11.4917 23.7285 11.4058 28.0651 9.73128C28.108 7.97089 27.6357 6.2105 26.8199 4.62186L26.3906 3.76313C26.2618 3.80607 26.09 3.89195 26.0041 3.97782C22.054 5.86702 17.5886 6.12463 13.4238 4.62187C10.5042 3.5914 7.32687 3.84901 4.57895 5.22297L3.72023 5.65233C3.76316 5.78114 3.84904 5.95288 3.93492 6.03875C4.45015 7.1551 4.87951 8.35732 5.18006 9.60247C8.1856 8.74374 11.5346 8.82961 14.626 9.94595Z" fill="#D9D9D9"/>
<path d="M3.93468 22.8698L4.87927 22.3545C6.79325 21.3975 8.90474 20.9343 10.9997 20.9954C12.2885 21.033 13.5711 21.2689 14.7976 21.7105C15.1971 21.8522 15.5979 21.9824 15.9997 22.1011V26.6777C14.3374 26.3686 12.6545 26.3244 10.9997 26.5375C9.28325 26.7584 7.59709 27.2562 5.99562 28.0221C5.90974 28.108 5.738 28.1939 5.60919 28.2368L5.17983 27.3781C4.44991 25.9612 4.02056 24.4155 3.93468 22.8698Z" fill="#D9D9D9"/>
<path d="M4.45026 18.9196C8.09985 17.4169 12.1788 17.288 15.9143 18.6191C19.3492 19.8213 22.9987 20.036 26.4336 19.2631C26.3907 17.331 26.6483 15.4418 27.3353 13.5526C22.827 14.8836 17.9752 14.7548 13.4669 13.1662C10.8907 12.2216 8.05691 12.2216 5.48073 13.0803C5.52367 14.9266 5.18019 16.8157 4.53615 18.662C4.53615 18.662 4.4932 18.7908 4.45026 18.9196Z" fill="#D9D9D9"/>
</svg>
