<svg width="1920" height="201" viewBox="0 0 1920 201" fill="none" xmlns="http://www.w3.org/2000/svg">
<path fill-rule="evenodd" clip-rule="evenodd" d="M-203 90.45L-151.017 95.475C-100.827 100.5 1.345 110.55 103.518 130.65C207.483 150.75 309.655 180.9 411.828 170.85C514 160.8 616.172 110.55 718.345 85.425C820.518 60.3 924.483 60.3 1026.66 95.475C1128.83 130.65 1231 201 1333.17 201C1435.34 201 1537.52 130.65 1641.48 105.525C1743.66 80.4 1845.83 100.5 1896.02 110.55L1948 120.6V0H1896.02C1845.83 0 1743.66 0 1641.48 0C1537.52 0 1435.34 0 1333.17 0C1231 0 1128.83 0 1026.66 0C924.483 0 820.518 0 718.345 0C616.172 0 514 0 411.828 0C309.655 0 207.483 0 103.518 0C1.345 0 -100.827 0 -151.017 0H-203V90.45Z" fill="#185013"/>
</svg>
