<svg width="24" height="24" viewBox="0 0 24 24" fill="none" xmlns="http://www.w3.org/2000/svg">
<path fill-rule="evenodd" clip-rule="evenodd" d="M21.8179 6.14598C21.1353 6.44844 20.4029 6.65356 19.6334 6.74513C20.4191 6.27462 21.0206 5.52831 21.3056 4.64177C20.5686 5.0775 19.7551 5.39389 18.8882 5.56541C18.1941 4.82489 17.2067 4.36365 16.1116 4.36365C14.0105 4.36365 12.307 6.06719 12.307 8.16707C12.307 8.46489 12.3406 8.75577 12.4055 9.03392C9.2441 8.87513 6.44079 7.3605 4.56458 5.05895C4.23661 5.61986 4.05004 6.27344 4.05004 6.9711C4.05004 8.29107 4.72219 9.45574 5.74201 10.1371C5.11852 10.1163 4.53213 9.94477 4.01876 9.65968V9.70719C4.01876 11.5498 5.33061 13.0876 7.07007 13.4376C6.75137 13.5234 6.41531 13.5709 6.06764 13.5709C5.82198 13.5709 5.5844 13.5466 5.35146 13.5002C5.83586 15.0125 7.24043 16.1123 8.90458 16.1424C7.60316 17.1623 5.96219 17.7683 4.17985 17.7683C3.87276 17.7683 3.57028 17.7498 3.27246 17.7162C4.95631 18.7974 6.95537 19.4279 9.10392 19.4279C16.1023 19.4279 19.9278 13.6312 19.9278 8.60398L19.915 8.11147C20.6625 7.57834 21.3091 6.90853 21.8179 6.14598Z" fill="#D9D9D9"/>
<mask id="mask0_569_1124" style="mask-type:luminance" maskUnits="userSpaceOnUse" x="3" y="4" width="19" height="16">
<path fill-rule="evenodd" clip-rule="evenodd" d="M21.8179 6.14598C21.1353 6.44844 20.4029 6.65356 19.6334 6.74513C20.4191 6.27462 21.0206 5.52831 21.3056 4.64177C20.5686 5.0775 19.7551 5.39389 18.8882 5.56541C18.1941 4.82489 17.2067 4.36365 16.1116 4.36365C14.0105 4.36365 12.307 6.06719 12.307 8.16707C12.307 8.46489 12.3406 8.75577 12.4055 9.03392C9.2441 8.87513 6.44079 7.3605 4.56458 5.05895C4.23661 5.61986 4.05004 6.27344 4.05004 6.9711C4.05004 8.29107 4.72219 9.45574 5.74201 10.1371C5.11852 10.1163 4.53213 9.94477 4.01876 9.65968V9.70719C4.01876 11.5498 5.33061 13.0876 7.07007 13.4376C6.75137 13.5234 6.41531 13.5709 6.06764 13.5709C5.82198 13.5709 5.5844 13.5466 5.35146 13.5002C5.83586 15.0125 7.24043 16.1123 8.90458 16.1424C7.60316 17.1623 5.96219 17.7683 4.17985 17.7683C3.87276 17.7683 3.57028 17.7498 3.27246 17.7162C4.95631 18.7974 6.95537 19.4279 9.10392 19.4279C16.1023 19.4279 19.9278 13.6312 19.9278 8.60398L19.915 8.11147C20.6625 7.57834 21.3091 6.90853 21.8179 6.14598Z" fill="white"/>
</mask>
<g mask="url(#mask0_569_1124)">
</g>
</svg>
