<svg width="24" height="24" viewBox="0 0 24 24" fill="none" xmlns="http://www.w3.org/2000/svg">
<path fill-rule="evenodd" clip-rule="evenodd" d="M21.8181 6.14598C21.1356 6.44844 20.4032 6.65356 19.6336 6.74513C20.4194 6.27462 21.0208 5.52831 21.3059 4.64177C20.5689 5.0775 19.7553 5.39389 18.8885 5.56541C18.1943 4.82489 17.2069 4.36365 16.1118 4.36365C14.0108 4.36365 12.3072 6.06719 12.3072 8.16707C12.3072 8.46489 12.3408 8.75577 12.4057 9.03392C9.24434 8.87513 6.44104 7.3605 4.56483 5.05895C4.23686 5.61986 4.05028 6.27344 4.05028 6.9711C4.05028 8.29107 4.72243 9.45574 5.74225 10.1371C5.11877 10.1163 4.53237 9.94477 4.01901 9.65968V9.70719C4.01901 11.5498 5.33086 13.0876 7.07031 13.4376C6.75161 13.5234 6.41555 13.5709 6.06789 13.5709C5.82222 13.5709 5.58464 13.5466 5.35171 13.5002C5.8361 15.0125 7.24067 16.1123 8.90483 16.1424C7.6034 17.1623 5.96243 17.7683 4.1801 17.7683C3.87301 17.7683 3.57052 17.7498 3.27271 17.7162C4.95655 18.7974 6.95561 19.4279 9.10416 19.4279C16.1026 19.4279 19.928 13.6312 19.928 8.60398L19.9153 8.11147C20.6627 7.57834 21.3094 6.90853 21.8181 6.14598Z" fill="#185013"/>
<mask id="mask0_36_4199" style="mask-type:luminance" maskUnits="userSpaceOnUse" x="3" y="4" width="19" height="16">
<path fill-rule="evenodd" clip-rule="evenodd" d="M21.8181 6.14598C21.1356 6.44844 20.4032 6.65356 19.6336 6.74513C20.4194 6.27462 21.0208 5.52831 21.3059 4.64177C20.5689 5.0775 19.7553 5.39389 18.8885 5.56541C18.1943 4.82489 17.2069 4.36365 16.1118 4.36365C14.0108 4.36365 12.3072 6.06719 12.3072 8.16707C12.3072 8.46489 12.3408 8.75577 12.4057 9.03392C9.24434 8.87513 6.44104 7.3605 4.56483 5.05895C4.23686 5.61986 4.05028 6.27344 4.05028 6.9711C4.05028 8.29107 4.72243 9.45574 5.74225 10.1371C5.11877 10.1163 4.53237 9.94477 4.01901 9.65968V9.70719C4.01901 11.5498 5.33086 13.0876 7.07031 13.4376C6.75161 13.5234 6.41555 13.5709 6.06789 13.5709C5.82222 13.5709 5.58464 13.5466 5.35171 13.5002C5.8361 15.0125 7.24067 16.1123 8.90483 16.1424C7.6034 17.1623 5.96243 17.7683 4.1801 17.7683C3.87301 17.7683 3.57052 17.7498 3.27271 17.7162C4.95655 18.7974 6.95561 19.4279 9.10416 19.4279C16.1026 19.4279 19.928 13.6312 19.928 8.60398L19.9153 8.11147C20.6627 7.57834 21.3094 6.90853 21.8181 6.14598Z" fill="white"/>
</mask>
<g mask="url(#mask0_36_4199)">
</g>
</svg>
