<svg width="25" height="24" viewBox="0 0 25 24" fill="none" xmlns="http://www.w3.org/2000/svg">
<path d="M15.3302 11.29L11.0902 7.05001C10.9972 6.95628 10.8866 6.88189 10.7648 6.83112C10.6429 6.78035 10.5122 6.75421 10.3802 6.75421C10.2482 6.75421 10.1175 6.78035 9.99561 6.83112C9.87375 6.88189 9.76315 6.95628 9.67019 7.05001C9.48394 7.23737 9.37939 7.49082 9.37939 7.75501C9.37939 8.0192 9.48394 8.27265 9.67019 8.46001L13.2102 12L9.67019 15.54C9.48394 15.7274 9.37939 15.9808 9.37939 16.245C9.37939 16.5092 9.48394 16.7626 9.67019 16.95C9.76363 17.0427 9.87444 17.116 9.99628 17.1658C10.1181 17.2155 10.2486 17.2408 10.3802 17.24C10.5118 17.2408 10.6423 17.2155 10.7641 17.1658C10.8859 17.116 10.9967 17.0427 11.0902 16.95L15.3302 12.71C15.4239 12.617 15.4983 12.5064 15.5491 12.3846C15.5998 12.2627 15.626 12.132 15.626 12C15.626 11.868 15.5998 11.7373 15.5491 11.6154C15.4983 11.4936 15.4239 11.383 15.3302 11.29Z" fill="#185013"/>
</svg>
