<svg width="21" height="20" viewBox="0 0 21 20" fill="none" xmlns="http://www.w3.org/2000/svg">
<path d="M12.8584 9.40837L9.32507 5.87504C9.24761 5.79693 9.15544 5.73494 9.05389 5.69263C8.95234 5.65032 8.84342 5.62854 8.73341 5.62854C8.6234 5.62854 8.51448 5.65032 8.41293 5.69263C8.31138 5.73494 8.21921 5.79693 8.14174 5.87504C7.98653 6.03117 7.89941 6.24238 7.89941 6.46254C7.89941 6.68269 7.98653 6.8939 8.14174 7.05004L11.0917 10L8.14174 12.95C7.98653 13.1062 7.89941 13.3174 7.89941 13.5375C7.89941 13.7577 7.98653 13.9689 8.14174 14.125C8.21961 14.2023 8.31195 14.2634 8.41349 14.3048C8.51502 14.3463 8.62374 14.3673 8.73341 14.3667C8.84308 14.3673 8.9518 14.3463 9.05333 14.3048C9.15486 14.2634 9.24721 14.2023 9.32507 14.125L12.8584 10.5917C12.9365 10.5142 12.9985 10.4221 13.0408 10.3205C13.0831 10.219 13.1049 10.11 13.1049 10C13.1049 9.89003 13.0831 9.78111 13.0408 9.67956C12.9985 9.57801 12.9365 9.48584 12.8584 9.40837Z" fill="#F0FDF4"/>
</svg>
